<svg id="visual" viewBox="0 0 960 540" width="960" height="540" xmlns="http://www.w3.org/2000/svg" xmlns:xlink="http://www.w3.org/1999/xlink" version="1.1"><path d="M0 55L69 55L69 55L137 55L137 71L206 71L206 33L274 33L274 55L343 55L343 93L411 93L411 50L480 50L480 77L549 77L549 28L617 28L617 77L686 77L686 23L754 23L754 82L823 82L823 33L891 33L891 87L960 87L960 66L960 0L960 0L891 0L891 0L823 0L823 0L754 0L754 0L686 0L686 0L617 0L617 0L549 0L549 0L480 0L480 0L411 0L411 0L343 0L343 0L274 0L274 0L206 0L206 0L137 0L137 0L69 0L69 0L0 0Z" fill="#482100"></path><path d="M0 195L69 195L69 185L137 185L137 147L206 147L206 82L274 82L274 185L343 185L343 174L411 174L411 104L480 104L480 136L549 136L549 114L617 114L617 168L686 168L686 120L754 120L754 163L823 163L823 93L891 93L891 179L960 179L960 147L960 64L960 85L891 85L891 31L823 31L823 80L754 80L754 21L686 21L686 75L617 75L617 26L549 26L549 75L480 75L480 48L411 48L411 91L343 91L343 53L274 53L274 31L206 31L206 69L137 69L137 53L69 53L69 53L0 53Z" fill="#7b7800"></path><path d="M0 379L69 379L69 325L137 325L137 201L206 201L206 233L274 233L274 239L343 239L343 260L411 260L411 293L480 293L480 336L549 336L549 293L617 293L617 298L686 298L686 303L754 303L754 368L823 368L823 341L891 341L891 249L960 249L960 287L960 145L960 177L891 177L891 91L823 91L823 161L754 161L754 118L686 118L686 166L617 166L617 112L549 112L549 134L480 134L480 102L411 102L411 172L343 172L343 183L274 183L274 80L206 80L206 145L137 145L137 183L69 183L69 193L0 193Z" fill="#11e551"></path><path d="M0 438L69 438L69 438L137 438L137 401L206 401L206 411L274 411L274 406L343 406L343 401L411 401L411 395L480 395L480 433L549 433L549 390L617 390L617 422L686 422L686 438L754 438L754 476L823 476L823 411L891 411L891 390L960 390L960 422L960 285L960 247L891 247L891 339L823 339L823 366L754 366L754 301L686 301L686 296L617 296L617 291L549 291L549 334L480 334L480 291L411 291L411 258L343 258L343 237L274 237L274 231L206 231L206 199L137 199L137 323L69 323L69 377L0 377Z" fill="#11e551"></path><path d="M0 509L69 509L69 465L137 465L137 476L206 476L206 482L274 482L274 433L343 433L343 444L411 444L411 444L480 444L480 476L549 476L549 471L617 471L617 482L686 482L686 492L754 492L754 498L823 498L823 465L891 465L891 438L960 438L960 492L960 420L960 388L891 388L891 409L823 409L823 474L754 474L754 436L686 436L686 420L617 420L617 388L549 388L549 431L480 431L480 393L411 393L411 399L343 399L343 404L274 404L274 409L206 409L206 399L137 399L137 436L69 436L69 436L0 436Z" fill="#7b7800"></path><path d="M0 541L69 541L69 541L137 541L137 541L206 541L206 541L274 541L274 541L343 541L343 541L411 541L411 541L480 541L480 541L549 541L549 541L617 541L617 541L686 541L686 541L754 541L754 541L823 541L823 541L891 541L891 541L960 541L960 541L960 490L960 436L891 436L891 463L823 463L823 496L754 496L754 490L686 490L686 480L617 480L617 469L549 469L549 474L480 474L480 442L411 442L411 442L343 442L343 431L274 431L274 480L206 480L206 474L137 474L137 463L69 463L69 507L0 507Z" fill="#482100"></path></svg>